<svg width="512" height="512" xmlns="http://www.w3.org/2000/svg" class="svg-inline--fa fa-gift fa-w-16">

 <g>
  <title>background</title>
  <rect fill="none" id="canvas_background" height="402" width="582" y="-1" x="-1"/>
 </g>
 <g>
  <title>Layer 1</title>
  <path stroke="null" id="svg_1" d="m116,388c0,11.0625 8.9375,20 20,20l100,0l0,-100l-120,0l0,80zm160,20l100,0c11.0625,0 20,-8.9375 20,-20l0,-80l-120,0l0,100zm120,-200l-26.3125,0c3.875,-7.5625 6.3125,-15.9375 6.3125,-25c0,-30.3125 -24.6875,-55 -55,-55c-26,0 -42.8125,13.3125 -64.375,42.6875c-21.5625,-29.375 -38.375,-42.6875 -64.375,-42.6875c-30.3125,0 -55,24.6875 -55,55c0,9.0625 2.375,17.4375 6.3125,25l-27.5625,0c-11.0625,0 -20,8.9375 -20,20l0,50c0,5.5 4.5,10 10,10l300,0c5.5,0 10,-4.5 10,-10l0,-50c0,-11.0625 -8.9375,-20 -20,-20zm-203.8125,0c-13.8125,0 -25,-11.1875 -25,-25s11.1875,-25 25,-25c12.4375,0 21.625,2.0625 53.8125,50l-53.8125,0zm128.8125,0l-53.8125,0c32.125,-47.8125 41.0625,-50 53.8125,-50c13.8125,0 25,11.1875 25,25s-11.1875,25 -25,25z" fill="#ffffff"/>
 </g>
</svg>