<?xml version="1.0" encoding="utf-8"?>
<!-- Generator: Adobe Illustrator 16.0.0, SVG Export Plug-In . SVG Version: 6.00 Build 0)  -->
<!DOCTYPE svg PUBLIC "-//W3C//DTD SVG 1.1//EN" "http://www.w3.org/Graphics/SVG/1.1/DTD/svg11.dtd">
<svg version="1.1" id="Layer_1" xmlns="http://www.w3.org/2000/svg" xmlns:xlink="http://www.w3.org/1999/xlink" x="0px" y="0px"
	 width="512.07px" height="480.38px" viewBox="0 0 512.07 480.38" enable-background="new 0 0 512.07 480.38" xml:space="preserve">
<g>
	<path fill-rule="evenodd" clip-rule="evenodd" fill="#FFFFFF" d="M310.003,362.542c3.293,0,6.399-0.022,9.505,0.005
		c5.445,0.047,8.595,2.704,8.581,7.2c-0.013,4.466-3.193,7.166-8.623,7.169c-33.804,0.019-67.608,0.012-101.411,0.015
		c-8.144,0-16.288-0.002-24.432,0.008c-3.523,0.004-6.365-1.164-7.784-4.627c-1.914-4.668,1.405-9.489,6.818-9.75
		c3.541-0.169,7.096-0.031,10.95-0.031c-3.317-13.139-6.528-25.868-9.746-38.597c-2.675-10.581-5.511-21.125-7.912-31.769
		c-0.506-2.243-0.18-5.332,1.034-7.207c20.3-31.347,40.803-62.563,61.265-93.805c0.229-0.349,0.533-0.65,1.179-1.429
		c0.094,1.326,0.202,2.14,0.202,2.956c0.008,38.935-0.012,77.87,0.055,116.806c0.004,2.367-0.497,3.687-2.823,4.854
		c-8.919,4.478-13.329,14.492-10.915,23.951c2.425,9.502,10.737,16.082,20.456,16.192c9.986,0.114,18.406-6.237,21.028-15.864
		c2.571-9.435-1.624-19.489-10.522-24.095c-2.551-1.32-3.134-2.773-3.13-5.363c0.067-38.712,0.048-77.424,0.049-116.136
		c0-0.872,0-1.743,0-3.388c0.967,1.171,1.539,1.744,1.974,2.406c20.163,30.771,40.3,61.56,60.493,92.313
		c1.728,2.632,2.04,5.197,1.266,8.23c-5.792,22.661-11.479,45.349-17.192,68.028C310.236,361.135,310.165,361.669,310.003,362.542z"
		/>
	<path fill-rule="evenodd" clip-rule="evenodd" fill="#FFFFFF" d="M176.946,148.281c-8.8,0-17.603-0.093-26.397,0.121
		c-1.075,0.026-2.475,1.504-3.104,2.65c-4.365,7.949-12.84,12.541-21.392,11.382c-9.484-1.284-16.483-7.665-18.492-16.858
		c-2.251-10.305,3.486-20.713,13.467-24.43c9.958-3.708,21.179,0.355,26.032,9.818c1.3,2.536,2.72,3.154,5.33,3.143
		c21.201-0.093,42.403-0.053,63.605-0.054c1.537,0,3.073,0,4.979,0c0-6.712-0.008-13.037,0.002-19.363
		c0.011-6.767,2.503-9.26,9.31-9.264c17.631-0.011,35.263-0.01,52.894,0c6.796,0.004,9.281,2.483,9.308,9.257
		c0.023,6.026,0.018,12.052,0.032,18.077c0.001,0.22,0.074,0.439,0.192,1.095c1.063,0.062,2.232,0.188,3.401,0.188
		c22.206,0.012,44.413-0.012,66.619,0.047c1.886,0.004,2.889-0.488,3.798-2.292c4.938-9.804,15.478-14.255,25.619-11.03
		c9.621,3.06,15.99,12.906,14.777,22.85c-1.282,10.52-9.813,18.629-20.551,18.949c-8.947,0.266-15.647-3.922-19.782-11.852
		c-0.975-1.868-1.972-2.518-4.041-2.487c-8.479,0.124-16.962,0.058-25.442,0.07c-0.201,0-0.403,0.104-0.981,0.261
		c0.727,0.571,1.233,1.064,1.822,1.42c37.868,22.869,59.679,56.272,65.531,100.078c0.618,4.628,0.706,9.341,0.834,14.021
		c0.136,5.02-2.804,8.361-7.079,8.383c-4.134,0.02-7.017-3.103-7.112-8.009c-0.436-22.228-6.005-43.007-17.901-61.854
		c-18.182-28.802-44.052-46.737-77.382-53.865c-0.646-0.138-1.308-0.206-2.359-0.368c0,6.479-0.001,12.81,0,19.14
		c0.002,7.029-2.39,9.402-9.455,9.401c-17.52-0.002-35.039,0.01-52.559-0.003c-7.232-0.006-9.497-2.338-9.501-9.698
		c-0.005-6.22-0.001-12.439-0.001-18.915c-16.451,2.993-31.326,8.801-44.689,18.049c-33.667,23.301-51.142,55.6-52.867,96.466
		c-0.272,6.445-2.698,9.699-7.232,9.655c-4.71-0.047-7.339-3.503-7.039-10.084c2.215-48.631,23.976-85.892,65.25-111.733
		c0.92-0.576,1.843-1.146,2.765-1.719C177.085,148.711,177.016,148.497,176.946,148.281z"/>
</g>
</svg>
