<svg width="576" height="512" xmlns="http://www.w3.org/2000/svg" class="svg-inline--fa fa-home fa-w-18">

 <g>
  <title>background</title>
  <rect fill="none" id="canvas_background" height="402" width="582" y="-1" x="-1"/>
 </g>
 <g>
  <title>Layer 1</title>
  <path stroke="null" id="svg_1" d="m277.995083,191.286846l-120.997692,99.655581l0,107.55715a10.500423,10.500423 0 0 0 10.500423,10.500423l73.542341,-0.19032a10.500423,10.500423 0 0 0 10.447921,-10.500423l0,-62.81222a10.500423,10.500423 0 0 1 10.500423,-10.500423l42.001694,0a10.500423,10.500423 0 0 1 10.500423,10.500423l0,62.766281a10.500423,10.500423 0 0 0 10.500423,10.533237l73.51609,0.203446a10.500423,10.500423 0 0 0 10.500423,-10.500423l0,-107.62934l-120.971441,-99.583391a8.00001,8.00001 0 0 0 -10.04103,0zm191.127395,67.734294l-54.864712,-45.224011l0,-90.900853a7.875318,7.875318 0 0 0 -7.875318,-7.875318l-36.751482,0a7.875318,7.875318 0 0 0 -7.875318,7.875318l0,47.652234l-58.756432,-48.341324a31.50127,31.50127 0 0 0 -40.032864,0l-166.123261,136.813955a7.875318,7.875318 0 0 0 -1.050042,11.091072l16.73505,20.34457a7.875318,7.875318 0 0 0 11.097635,1.069731l154.36935,-127.147002a8.00001,8.00001 0 0 1 10.04103,0l154.375913,127.147002a7.875318,7.875318 0 0 0 11.091072,-1.050042l16.73505,-20.34457a7.875318,7.875318 0 0 0 -1.11567,-11.110761z" fill="#ffffff"/>
 </g>
</svg>