<svg width="352" height="512" xmlns="http://www.w3.org/2000/svg" class="svg-inline--fa fa-lightbulb fa-w-11">

 <g>
  <title>background</title>
  <rect fill="none" id="canvas_background" height="402" width="582" y="-1" x="-1"/>
 </g>
 <g>
  <title>Layer 1</title>
  <path stroke="null" id="svg_1" d="m149.299148,336.068421c0.004403,2.769744 0.823437,5.482244 2.360227,7.789631l7.525426,11.312358a14.086506,14.086506 0 0 0 11.730682,6.288068l27.173437,0a14.086506,14.086506 0 0 0 11.730682,-6.288068l7.525426,-11.312358a14.086065,14.086065 0 0 0 2.360227,-7.789631l0.017614,-16.887074l-70.445738,0l0.022017,16.887074zm-42.299147,-122.568891c0,19.537926 7.243608,37.362926 19.18125,50.98267c7.274432,8.300426 18.652841,25.641051 22.990199,40.269176c0.017614,0.114489 0.030824,0.228977 0.048437,0.343466l70.560227,0c0.017614,-0.114489 0.030824,-0.224574 0.048437,-0.343466c4.337358,-14.628125 15.715767,-31.96875 22.990199,-40.269176c11.937642,-13.619744 19.18125,-31.444744 19.18125,-50.98267c0,-42.884801 -34.826562,-77.632102 -77.742187,-77.5c-44.919176,0.136506 -77.257812,36.535085 -77.257812,77.5zm77.5,-35.227273c-19.423437,0 -35.227273,15.803835 -35.227273,35.227273c0,3.892614 -3.152841,7.045455 -7.045455,7.045455s-7.045455,-3.152841 -7.045455,-7.045455c0,-27.195454 22.122727,-49.318182 49.318182,-49.318182c3.892614,0 7.045455,3.152841 7.045455,7.045455s-3.152841,7.045455 -7.045455,7.045455z" fill="#ffffff"/>
 </g>
</svg>