<?xml version="1.0" encoding="utf-8"?>
<!-- Generator: Adobe Illustrator 16.0.0, SVG Export Plug-In . SVG Version: 6.00 Build 0)  -->
<!DOCTYPE svg PUBLIC "-//W3C//DTD SVG 1.1//EN" "http://www.w3.org/Graphics/SVG/1.1/DTD/svg11.dtd">
<svg version="1.1" id="Layer_1" xmlns="http://www.w3.org/2000/svg" xmlns:xlink="http://www.w3.org/1999/xlink" x="0px" y="0px"
	 width="518.07px" height="480.38px" viewBox="0 0 518.07 480.38" enable-background="new 0 0 518.07 480.38" xml:space="preserve">
<g>
	<path fill-rule="evenodd" clip-rule="evenodd" fill="#FFFFFF" d="M157.086,171.832c0.516-2.601,0.809-5.019,1.487-7.323
		c2.113-7.184,7.357-11.119,14.85-11.233c4.667-0.072,9.338-0.05,14.006-0.019c8.448,0.056,14.338,5.029,15.854,13.37
		c0.295,1.623,0.49,3.265,0.761,5.105c15.408,0,30.831,0,46.512,0c0-2.979,0-6.009,0-9.19c-2.533-0.161-5.059-0.118-7.515-0.514
		c-11.197-1.806-19.082-9.175-19.915-20.415c-0.817-11.02-0.871-22.214,0.072-33.217c1.066-12.441,11.001-20.473,23.542-20.5
		c22.858-0.05,45.716-0.043,68.575,0.003c6.213,0.013,12.503-0.305,18.625,0.519c11.124,1.497,19.131,10.992,19.319,22.241
		c0.161,9.627,0.186,19.261,0.011,28.887c-0.23,12.625-10.4,22.563-23.06,22.808c-1.531,0.029-3.064,0.003-4.757,0.003
		c0,3.252,0,6.216,0,9.583c1.098,0,2.128,0,3.158,0c11.089,0,22.176-0.019,33.267,0.005c21.825,0.047,38.15,16.466,38.136,38.254
		c-0.025,36.865,0.023,73.729-0.03,110.594c-0.026,18.21-11.926,32.94-29.706,36.832c-2.73,0.596-5.59,0.825-8.391,0.828
		c-68.088,0.047-136.175,0.058-204.262,0.034c-20.905-0.006-37.5-16.461-37.548-37.353c-0.083-37.252-0.08-74.507-0.014-111.76
		c0.036-20.01,14.729-35.537,35.135-37.383C155.774,171.938,156.353,171.894,157.086,171.832z M353.549,265.193
		c0.104-35.846-29.1-65.327-64.864-65.482c-36.532-0.157-66.039,28.871-66.142,65.071c-0.104,36.218,28.915,65.785,64.705,65.931
		C324.088,330.864,353.442,301.855,353.549,265.193z M241.374,143.748c31.273,0,62.234,0,93.266,0c0-12.534,0-24.897,0-37.27
		c-31.192,0-62.152,0-93.266,0C241.374,118.942,241.374,131.236,241.374,143.748z M180.748,207.618
		c-8.756-0.017-15.696,6.946-15.688,15.739c0.008,8.362,6.979,15.315,15.449,15.411c8.52,0.094,15.676-6.954,15.704-15.466
		C196.24,214.69,189.282,207.634,180.748,207.618z"/>
	<path fill-rule="evenodd" clip-rule="evenodd" fill="#FFFFFF" d="M287.87,311.784c-25.512,0.016-46.392-21.057-46.396-46.819
		c-0.004-25.246,21.059-46.318,46.302-46.323c25.77-0.006,46.846,20.856,46.843,46.371
		C334.615,290.865,313.723,311.77,287.87,311.784z M317.625,251.066c-0.099-8.605-7.11-15.507-15.707-15.46
		c-8.547,0.049-15.619,7.233-15.455,15.703c0.168,8.666,7.203,15.604,15.697,15.476
		C310.766,266.656,317.723,259.583,317.625,251.066z"/>
</g>
</svg>
