<?xml version="1.0" encoding="utf-8"?>
<!-- Generator: Adobe Illustrator 16.0.0, SVG Export Plug-In . SVG Version: 6.00 Build 0)  -->
<!DOCTYPE svg PUBLIC "-//W3C//DTD SVG 1.1//EN" "http://www.w3.org/Graphics/SVG/1.1/DTD/svg11.dtd">
<svg version="1.1" id="Layer_1" xmlns="http://www.w3.org/2000/svg" xmlns:xlink="http://www.w3.org/1999/xlink" x="0px" y="0px"
	 width="512.07px" height="480.38px" viewBox="0 0 512.07 480.38" enable-background="new 0 0 512.07 480.38" xml:space="preserve">
<g>
	<path fill-rule="evenodd" clip-rule="evenodd" fill="#FFFFFF" d="M147.377,241.893c0,17.512,0,34.822,0,52.179
		c-4.454,0-8.811,0.51-12.987-0.136c-4.575-0.71-7.337-5.05-7.345-10.03c-0.022-13.254-0.008-26.509-0.008-39.763
		c0-20.734-0.004-41.465,0.002-62.197c0.002-7.29,4.047-11.396,11.326-11.42c10.111-0.035,20.222-0.009,30.333-0.008
		c0.915,0,1.829,0,3.046,0c0-1.176,0-2.086,0-2.997c0.002-23.281-0.012-46.561,0.035-69.84c0.005-2.188,0.093-4.461,0.681-6.543
		c1.604-5.698,6.927-9.873,12.838-9.889c28.377-0.075,56.756-0.03,85.133-0.021c0.162,0,0.324,0.077,0.669,0.166
		c0,8.575,0,17.198,0,26.249c-0.922,0-1.896,0-2.874,0c-22.6,0.004-45.2,0.004-67.801,0.014c-3.708,0.002-4.311,0.555-4.314,4.268
		c-0.026,22.175-0.023,44.351-0.019,66.527c0,0.662,0.102,1.326,0.167,2.105c41.216,0,82.312,0,123.721,0c0-8.008,0-15.951,0-24.068
		c8.249,0,16.182,0,24.332,0c0,4.633,0,9.113,0,13.873c1.087,0.062,1.978,0.155,2.868,0.155c9.516,0.012,19.03-0.014,28.546,0.014
		c7.272,0.023,11.303,4.123,11.304,11.435c0.004,33.73,0.005,67.46-0.001,101.192c-0.001,7.191-3.998,11.222-11.146,11.262
		c-2.28,0.015-4.561,0.002-7.084,0.002c0-17.592,0-34.968,0-52.53C294.945,241.893,221.338,241.893,147.377,241.893z
		 M147.382,198.859c0.002,8.073,0.177,8.249,8.196,8.264c7.634,0.015,8.079-0.424,8.062-7.972c-0.017-7.978-0.337-8.297-8.277-8.3
		C147.731,190.849,147.38,191.199,147.382,198.859z"/>
	<path fill-rule="evenodd" clip-rule="evenodd" fill="#FFFFFF" d="M336.214,249.966c8.228,0,16.163,0,24.383,0
		c0,1.21,0,2.289,0,3.37c0,24.128,0.011,48.258-0.006,72.389c-0.003,9.702-5.823,15.465-15.573,15.465
		c-58.031,0.003-116.061,0.004-174.09,0c-9.588,0-15.425-5.841-15.42-15.357c0.011-24.299,0.006-48.598,0.007-72.897
		c0-0.919,0-1.836,0-2.938c8.138,0,16.075,0,24.373,0c0,1.029,0,2.02,0,3.01c0.002,19.626-0.004,39.252,0.012,58.878
		c0.003,4.627,0.308,4.895,4.941,4.895c48.768,0,97.537,0,146.304,0.001c4.764,0,5.066-0.295,5.068-5.044
		c0.002-19.541,0.002-39.08,0.002-58.624C336.215,252.117,336.214,251.119,336.214,249.966z"/>
	<path fill-rule="evenodd" clip-rule="evenodd" fill="#FFFFFF" d="M343.513,146.211c-2.059,0-4.24,0-6.421,0
		c-14.188-0.001-28.376,0.039-42.568-0.018c-7.687-0.031-13.184-4.224-14.78-11.108c-0.229-0.982-0.324-2.017-0.325-3.027
		c-0.016-16.229-0.008-32.456-0.004-48.684c0-0.476,0.052-0.951,0.068-1.189C300.787,103.487,322.103,124.803,343.513,146.211z"/>
	<path fill-rule="evenodd" clip-rule="evenodd" fill="#FFFFFF" d="M257.885,300.533c-18.171,0-36.342,0.001-54.515-0.002
		c-5.079,0-7.243-2.17-7.288-7.296c-0.007-0.678-0.013-1.356,0.002-2.038c0.103-4.579,2.352-6.875,6.967-6.891
		c11.548-0.043,23.098-0.019,34.646-0.019c24.709,0,49.421-0.011,74.132,0.002c7.239,0.004,11.038,6.84,7.345,13.192
		c-1.327,2.281-3.411,3.08-6.008,3.07c-13.588-0.042-27.175-0.019-40.76-0.019C267.565,300.534,262.728,300.534,257.885,300.533z"/>
	<path fill-rule="evenodd" clip-rule="evenodd" fill="#FFFFFF" d="M258.245,255.909c18.001,0.004,36.003,0.031,54.005-0.021
		c2.987-0.01,5.879,0.326,7.015,3.413c1.28,3.471,1.566,7.185-0.645,10.493c-1.482,2.226-3.937,2.38-6.387,2.377
		c-16.982-0.02-33.966-0.01-50.948-0.012c-19.023-0.003-38.043-0.025-57.064,0.009c-2.925,0.006-5.842-0.161-7.24-3.124
		c-1.541-3.266-1.498-6.82,0.005-10.1c1.095-2.396,3.396-3.06,5.98-3.048c11.718,0.041,23.437,0.011,35.155,0.009
		C244.828,255.903,251.537,255.905,258.245,255.909z"/>
</g>
</svg>
