<svg width="512" height="512" xmlns="http://www.w3.org/2000/svg">

 <g>
  <title>background</title>
  <rect fill="none" id="canvas_background" height="402" width="582" y="-1" x="-1"/>
 </g>
 <g>
  <title>Layer 1</title>
  <g fill="none" id="surface1">
   <path stroke="null" id="svg_1" fill-rule="nonzero" fill="#ffffff" d="m393.289557,336.028787l-53.16641,-53.155996c-2.399424,-2.399424 -5.650727,-3.732438 -9.064492,-3.732438l-8.689582,0c14.715219,-18.820484 23.461038,-42.489806 23.461038,-68.244043c0,-61.260302 -49.646422,-110.89631 -110.912973,-110.89631c-61.264468,0 -110.917138,49.636008 -110.917138,110.89631c0,61.260302 49.646422,110.89631 110.917138,110.89631c25.754237,0 49.433973,-8.745818 68.25654,-23.461038l0,8.691665c0,3.411681 1.333014,6.665068 3.732438,9.064492l53.164328,53.153914c5.013381,5.01338 13.117686,5.01338 18.076913,0l15.090129,-15.090129c5.011298,-5.011298 5.011298,-13.111438 0.052071,-18.122736zm-158.372419,-48.361313c-42.410658,0 -76.781578,-34.306353 -76.781578,-76.771164c0,-42.406492 34.312601,-76.771164 76.781578,-76.771164c42.410658,0 76.781578,34.306353 76.781578,76.771164c0,42.406492 -34.310518,76.771164 -76.781578,76.771164zm14.454865,-81.334653l-23.998409,-7.198273c-2.751423,-0.826885 -4.675962,-3.615799 -4.675962,-6.787955c0,-3.876153 2.824323,-7.033729 6.290158,-7.033729l14.990153,0c2.430666,0 4.775937,0.687335 6.833777,1.982858c1.728752,1.083073 3.926141,1.018506 5.402871,-0.38949l6.265163,-5.975649c1.880798,-1.797486 1.774574,-4.911322 -0.304094,-6.473447c-4.853003,-3.642876 -10.707847,-5.742372 -16.727237,-6.052715l0,-8.685416c0,-2.357768 -1.907876,-4.265643 -4.265643,-4.265643l-8.531286,0c-2.355685,0 -4.265643,1.907876 -4.265643,4.265643l0,8.595854c-12.59906,0.335336 -22.75704,10.957787 -22.75704,24.031734c0,10.647445 6.925422,20.159747 16.83971,23.134033l23.998409,7.198273c2.751423,0.826885 4.675961,3.615799 4.675961,6.787955c0,3.876153 -2.826405,7.033729 -6.29224,7.033729l-14.981823,0c-2.43275,0 -4.77802,-0.687335 -6.83586,-1.982858c-1.728752,-1.083073 -3.924059,-1.018506 -5.400788,0.38949l-6.265163,5.975649c-1.882882,1.797486 -1.776657,4.911322 0.304094,6.473447c4.850919,3.642876 10.705765,5.742372 16.725154,6.052715l0,8.685416c0,2.357768 1.909959,4.265643 4.265643,4.265643l8.531286,0c2.357768,0 4.265643,-1.907876 4.265643,-4.265643l0,-8.595854c12.601144,-0.335336 22.75704,-10.951539 22.75704,-24.031734c0,-10.647445 -6.925422,-20.159747 -16.843876,-23.134033zm0,0"/>
  </g>
 </g>
</svg>