<?xml version="1.0" encoding="utf-8"?>
<!-- Generator: Adobe Illustrator 16.0.0, SVG Export Plug-In . SVG Version: 6.00 Build 0)  -->
<!DOCTYPE svg PUBLIC "-//W3C//DTD SVG 1.1//EN" "http://www.w3.org/Graphics/SVG/1.1/DTD/svg11.dtd">
<svg version="1.1" id="Layer_1" xmlns="http://www.w3.org/2000/svg" xmlns:xlink="http://www.w3.org/1999/xlink" x="0px" y="0px"
	 width="512.07px" height="480.38px" viewBox="0 0 512.07 480.38" enable-background="new 0 0 512.07 480.38" xml:space="preserve">
<g>
	<path fill-rule="evenodd" clip-rule="evenodd" fill="#FFFFFF" d="M111.855,256.729c7.798-9.45,15.594-18.902,23.394-28.351
		c1.64-1.987,3.45-3.856,4.9-5.973c2.083-3.041,4.83-3.98,8.424-3.969c28.443,0.09,56.886,0.05,85.329,0.05c1.137,0,2.273,0,3.699,0
		c0-3.871,0-7.473,0-11.22c9.579,0,18.87,0,28.468,0c0,3.598,0,7.187,0,11.049c1.314,0.067,2.34,0.164,3.365,0.165
		c22.844,0.009,45.687,0.001,68.53,0.021c1.413,0.001,2.86,0.046,4.233,0.343c2.212,0.477,3.527,1.972,3.845,4.229
		c0.136,0.963,0.135,1.95,0.135,2.926c0.007,21.688,0.009,43.376,0.003,65.063c-0.001,5.903-1.54,7.461-7.383,7.461
		c-63.642,0.004-127.282-0.015-190.924,0.049c-3.515,0.003-5.989-1.183-8.213-3.912c-8.357-10.259-16.898-20.369-25.361-30.542
		c-0.845-1.016-1.631-2.08-2.444-3.121C111.855,259.575,111.855,258.152,111.855,256.729z"/>
	<path fill-rule="evenodd" clip-rule="evenodd" fill="#FFFFFF" d="M237.728,121.309c0-5.271-0.112-10.146,0.029-15.014
		c0.165-5.682,3.028-9.829,8.124-12.146c5.162-2.347,10.268-1.798,14.83,1.667c3.263,2.478,5.212,5.853,5.313,10.013
		c0.124,5.042,0.029,10.089,0.029,15.479c1.403,0,2.438,0,3.472,0c30.491,0,60.982,0.036,91.474-0.05
		c3.485-0.01,5.988,1.008,8.243,3.783c8.627,10.62,17.465,21.069,26.23,31.577c3.3,3.957,3.323,5.499-0.004,9.499
		c-9.091,10.931-18.145,21.895-27.368,32.714c-1.067,1.252-3.07,1.768-4.717,2.436c-0.69,0.28-1.582,0.074-2.381,0.074
		c-63.294,0.001-126.588,0.002-189.882-0.002c-0.977,0-1.958,0-2.929-0.089c-2.638-0.246-4.218-1.727-4.691-4.308
		c-0.19-1.04-0.227-2.119-0.228-3.181c-0.012-21.513-0.012-43.026-0.007-64.538c0.001-6.268,1.643-7.912,7.882-7.912
		c20.98-0.003,41.959-0.001,62.938-0.001C235.145,121.309,236.204,121.309,237.728,121.309z"/>
	<path fill-rule="evenodd" clip-rule="evenodd" fill="#FFFFFF" d="M237.806,304.355c9.53,0,18.741,0,28.15,0
		c0,22.784,0,45.469,0,68.37c-9.321,0-18.66,0-28.15,0C237.806,349.942,237.806,327.254,237.806,304.355z"/>
</g>
</svg>
