<?xml version="1.0" encoding="utf-8"?>
<!-- Generator: Adobe Illustrator 16.0.0, SVG Export Plug-In . SVG Version: 6.00 Build 0)  -->
<!DOCTYPE svg PUBLIC "-//W3C//DTD SVG 1.1//EN" "http://www.w3.org/Graphics/SVG/1.1/DTD/svg11.dtd">
<svg version="1.1" id="Layer_1" xmlns="http://www.w3.org/2000/svg" xmlns:xlink="http://www.w3.org/1999/xlink" x="0px" y="0px"
	 width="512.07px" height="480.76px" viewBox="0 0 512.07 480.76" enable-background="new 0 0 512.07 480.76" xml:space="preserve">
<g>
	<path fill-rule="evenodd" clip-rule="evenodd" fill="#FFFFFF" d="M385.756,82.211c3.301,16.65,6.568,33.13,9.93,50.081
		c-47.55,9.433-94.915,18.828-142.28,28.224c0.021,0.197,0.042,0.394,0.063,0.59c47.836,0,95.673,0,143.863,0
		c0.073,1.459,0.185,2.663,0.185,3.867c0.008,52.541,0.039,105.083-0.009,157.623c-0.019,21.112-17.972,38.918-39.095,38.921
		c-67.261,0.009-134.523,0.009-201.784,0c-21.111-0.004-39.05-17.827-39.067-38.949c-0.045-55.145-0.025-110.291-0.008-165.436
		c0.003-13.125,8.411-23.451,21.349-26.027c52.45-10.448,104.912-20.832,157.369-31.237c29.058-5.763,58.114-11.525,87.171-17.285
		C384.089,82.456,384.744,82.373,385.756,82.211z M144.955,226.115c-0.094,1.048-0.205,1.708-0.206,2.37
		c-0.009,30.452-0.041,60.906,0.051,91.358c0.007,2.419,0.428,5.036,1.418,7.216c2.712,5.973,7.994,7.316,14.075,7.313
		c64.754-0.053,129.509-0.029,194.265-0.035c11.023-0.001,15.757-4.667,15.766-15.634c0.024-29.661,0.012-59.321,0-88.981
		c0-1.188-0.128-2.377-0.2-3.606C294.891,226.115,220.093,226.115,144.955,226.115z M317.7,109.662
		c1.435,1.065,2.294,1.759,3.207,2.37c6.302,4.208,12.781,8.175,18.862,12.68c3.638,2.696,6.998,3.565,11.493,2.482
		c9.164-2.21,18.476-3.809,28.515-5.816c-9.376-6.271-18.065-12.134-26.844-17.862c-0.786-0.514-2.188-0.359-3.236-0.157
		C339.271,105.367,328.857,107.452,317.7,109.662z M179.884,137.003c5.686,3.821,10.613,7.147,15.558,10.448
		c3.945,2.633,7.635,6.596,11.947,7.472c4.406,0.897,9.447-1.172,14.184-2.077c6.605-1.262,13.187-2.648,20.169-4.062
		c-0.675-0.638-0.954-0.988-1.308-1.227c-8.16-5.477-16.298-10.989-24.536-16.349c-0.991-0.646-2.596-0.825-3.798-0.597
		C201.683,132.595,191.292,134.718,179.884,137.003z M311.045,135.06c-7.098-4.756-13.731-8.683-19.757-13.388
		c-5.336-4.168-10.5-5.392-17.143-3.532c-8.049,2.255-16.404,3.421-25.436,5.219c9.449,6.308,18.166,12.149,26.926,17.925
		c0.57,0.376,1.515,0.462,2.215,0.326C288.609,139.522,299.356,137.377,311.045,135.06z M243.371,175.508
		c-0.998-0.294-1.305-0.462-1.612-0.462c-10.514-0.025-21.028-0.102-31.54,0.041c-1.246,0.017-2.708,0.992-3.674,1.931
		c-5.435,5.275-10.748,10.675-16.101,16.034c-1.629,1.63-3.253,3.264-5.466,5.486c12.013,0,23.067,0.016,34.12-0.039
		c0.699-0.003,1.562-0.396,2.066-0.892C228.466,190.396,235.721,183.137,243.371,175.508z M313.92,175.021
		c-12.076,0-23.141-0.042-34.202,0.075c-0.934,0.01-2.004,0.936-2.763,1.685c-6.596,6.517-13.14,13.086-19.683,19.655
		c-0.499,0.501-0.882,1.117-1.642,2.097c11.624,0,22.679,0.011,33.736-0.031c0.61-0.003,1.376-0.287,1.803-0.71
		C298.524,190.481,305.838,183.127,313.92,175.021z M325.223,198.536c12.099,0,23.152,0.048,34.203-0.081
		c1.028-0.012,2.212-0.971,3.038-1.78c5.016-4.907,9.933-9.915,14.915-14.856c2.04-2.023,4.163-3.963,6.552-6.23
		c-1.11-0.361-1.414-0.545-1.718-0.546c-10.525-0.025-21.052-0.067-31.576,0.008c-1.006,0.007-2.254,0.504-2.97,1.205
		C340.392,183.375,333.203,190.585,325.223,198.536z"/>
	<path fill-rule="evenodd" clip-rule="evenodd" fill="#FFFFFF" d="M241.847,315.317c0-24.987,0-49.264,0-74.168
		c20.296,12.44,40.193,24.636,60.497,37.081C282.106,290.636,262.224,302.825,241.847,315.317z"/>
</g>
</svg>
