<?xml version="1.0" encoding="utf-8"?>
<!-- Generator: Adobe Illustrator 16.0.0, SVG Export Plug-In . SVG Version: 6.00 Build 0)  -->
<!DOCTYPE svg PUBLIC "-//W3C//DTD SVG 1.1//EN" "http://www.w3.org/Graphics/SVG/1.1/DTD/svg11.dtd">
<svg version="1.1" id="Layer_1" xmlns="http://www.w3.org/2000/svg" xmlns:xlink="http://www.w3.org/1999/xlink" x="0px" y="0px"
	 width="512.068px" height="480.379px" viewBox="0 0 512.068 480.379" enable-background="new 0 0 512.068 480.379"
	 xml:space="preserve">
<g>
	<g>
		<path fill="#FFFFFF" d="M111.034,124.041c1.96-5.067,4.331-9.816,9.142-12.89c3.713-2.372,7.644-3.704,12.118-3.702
			c70.79,0.038,141.58,0.022,212.37,0.06c1.267,0,3.104-0.773,3.703,0.689c0.48,1.176-1.191,2.059-1.946,3.033
			c-3.406,4.4-6.914,8.722-10.267,13.163c-1.174,1.555-2.468,2.195-4.435,2.193c-42.962-0.046-85.924-0.034-128.886-0.035
			c-21.969,0-43.939-0.012-65.908,0c-5.905,0.003-6.978,1.081-6.979,7.021c-0.008,45.11-0.009,90.221,0.001,135.331
			c0.001,6.365,0.934,7.279,7.269,7.279c76.355,0.008,152.711,0.016,229.066,0.019c5.764,0,7.05-1.285,7.049-7.043
			c0-25.386-0.005-50.773-0.021-76.16c-0.001-1.869,0.005-3.648,1.329-5.234c5.896-7.058,10.929-14.739,15.967-22.411
			c0.312-0.474,0.718-0.885,1.115-1.368c1.088,0.797,0.66,1.856,0.66,2.736c0.03,45.11,0.058,90.219,0.022,135.331
			c-0.01,12.122-9.445,21.342-21.73,21.352c-29.098,0.018-58.193-0.006-87.291-0.008c-4.399-0.002-4.575,0.229-3.546,4.479
			c2.213,9.122,10.385,16.295,20.646,17.388c8.292,0.885,8.314,5.235,7.104,12.459c-0.421,2.516-2.791,3.191-5.289,3.186
			c-13.083-0.037-26.167-0.001-39.251-0.001c-20.407-0.001-40.814-0.002-61.222-0.021c-5.23-0.006-6.573-1.383-6.591-6.602
			c-0.024-6.896,0.771-7.839,7.548-8.961c10.862-1.799,18.662-8.494,20.681-17.753c0.878-4.027,0.757-4.171-3.295-4.171
			c-28.609,0.002-57.218,0.021-85.827-0.012c-12.064-0.014-18.386-4.375-22.793-15.527c-0.141-0.355-0.343-0.688-0.517-1.031
			C111.034,245.898,111.034,184.97,111.034,124.041z M241.764,299.794c0.02,5.788,4.176,9.933,9.935,9.903
			c5.651-0.028,9.897-4.374,9.84-10.075c-0.058-5.715-4.274-9.753-10.138-9.701C245.815,289.971,241.746,294.139,241.764,299.794z"
			/>
		<path fill="#FFFFFF" d="M410.994,94.748c-6.203,24.292-19.156,45.342-31.965,66.455c-2.327,3.835-4.924,7.505-7.303,11.31
			c-0.996,1.598-2.113,1.93-3.908,1.369c-13.328-4.167-24.512-11.367-32.953-22.665c-1.385-1.853-1.693-3.103-0.251-5.08
			c13.297-18.23,27.089-36.037,43.435-51.699c6.439-6.171,13.259-11.826,21.814-14.923c3.222,0,6.446,0.077,9.665-0.038
			c1.266-0.046,1.53,0.241,1.504,1.503C410.935,85.568,410.994,90.159,410.994,94.748z"/>
		<path fill="#FFFFFF" d="M250.047,144.968c22.552-0.001,45.103-0.009,67.655,0.023c0.996,0.002,2.37-0.57,2.919,0.598
			c0.43,0.916-0.586,1.776-1.075,2.583c-5.442,8.986-10.183,18.251-11.595,28.851c-0.193,1.453-1.025,2.149-2.345,2.647
			c-5.598,2.113-11.237,3.272-17.353,3.235c-34.753-0.21-69.509-0.103-104.264-0.104c-0.878,0-1.76,0.023-2.635-0.033
			c-3.119-0.199-4.836-1.887-4.854-5.059c-0.051-9.176-0.05-18.354,0.015-27.53c0.026-3.685,1.789-5.2,5.876-5.203
			C204.944,144.962,227.496,144.971,250.047,144.968z"/>
		<path fill="#FFFFFF" d="M293.507,257.878c-5.498,0.126-10.664-1.19-15.599-3.483c-3.726-1.729-4.121-4.777-0.783-7.177
			c7.054-5.067,9.7-11.736,8.601-20.346c-1.158-9.044,0.012-17.713,5.769-25.313c5.384-7.108,12.795-10.307,21.321-11.406
			c5.923-0.763,5.892-0.684,6.122-6.656c0.304-7.867,2.824-15.095,6.429-22.016c1.093-2.099,1.979-1.54,3.156-0.104
			c4.279,5.218,8.82,10.167,14.493,13.956c4.752,3.174,9.944,5.39,15.317,7.212c4.463,1.515,4.581,1.705,1.095,5.026
			c-6.2,5.907-13.034,10.889-21.179,13.821c-1.319,0.475-2.024,0.923-1.229,2.495c4.438,8.779,3.443,17.611-0.91,25.894
			c-7.891,15.008-20.082,24.67-37.066,27.675C297.229,257.775,295.354,257.746,293.507,257.878z"/>
		<path fill="#FFFFFF" d="M176.492,224.667c-0.001-8.979-0.02-17.958,0.007-26.936c0.013-4.295,1.557-5.872,5.799-5.881
			c11.906-0.027,23.813-0.027,35.72,0c4.062,0.009,5.643,1.599,5.649,5.721c0.025,18.153,0.024,36.306,0,54.458
			c-0.005,4.103-1.6,5.723-5.651,5.732c-12.004,0.031-24.008,0.031-36.013,0c-3.856-0.012-5.483-1.66-5.499-5.572
			C176.466,243.016,176.493,233.841,176.492,224.667z"/>
		<path fill="#FFFFFF" d="M258.737,191.826c7.408,0,14.818-0.013,22.228,0.018c0.824,0.004,1.953-0.367,2.394,0.556
			c0.453,0.952-0.645,1.493-1.118,2.18c-0.333,0.48-0.864,0.876-1.044,1.4c-1.775,5.207-5.646,5.827-10.573,5.678
			c-11.201-0.339-22.419-0.11-33.63-0.122c-3.911-0.004-4.253-0.398-4.26-4.761c-0.007-4.623,0.241-4.922,4.363-4.931
			c7.214-0.014,14.428-0.004,21.643-0.004C258.737,191.835,258.737,191.83,258.737,191.826z"/>
		<path fill="#FFFFFF" d="M254.007,210.577c5.852,0.003,11.702,0.056,17.553-0.024c2.23-0.03,3.15,0.5,2.75,3.033
			c-1.061,6.669-0.951,6.692-7.68,6.695c-9.945,0.005-19.892,0.02-29.838-0.007c-3.701-0.01-4.071-0.484-4.078-4.672
			c-0.006-4.538,0.32-4.991,4.033-5.017C242.5,210.546,248.254,210.575,254.007,210.577z"/>
		<path fill="#FFFFFF" d="M253.866,229.337c5.851,0.001,11.703-0.024,17.554,0.012c2.81,0.017,3.433,0.881,2.781,3.612
			c-0.703,2.951-4.399,6.051-7.444,6.062c-10.142,0.036-20.285-0.034-30.427,0.031c-2.648,0.018-3.792-1.089-3.601-3.688
			c0.042-0.583,0-1.17,0.004-1.756c0.031-3.838,0.414-4.255,4.163-4.269C242.553,229.319,248.209,229.335,253.866,229.337z"/>
		<path fill="#FFFFFF" d="M249.004,257.791c-4.195-0.002-8.391-0.063-12.584,0.02c-2.571,0.051-3.869-0.966-3.692-3.627
			c0.051-0.775,0.045-1.563-0.016-2.34c-0.217-2.771,1.049-3.839,3.802-3.806c7.901,0.093,15.804,0.082,23.706,0.003
			c2.18-0.021,3.35,0.598,3.146,2.973c-0.073,0.863,0.043,1.76,0.188,2.621c0.7,4.172,0.715,4.166-3.428,4.161
			C256.418,257.79,252.711,257.794,249.004,257.791z"/>
	</g>
</g>
</svg>
