<svg width="512.068" height="480.379" xmlns="http://www.w3.org/2000/svg">

 <g>
  <title>background</title>
  <rect fill="none" id="canvas_background" height="402" width="582" y="-1" x="-1"/>
 </g>
 <g>
  <title>Layer 1</title>
  <g stroke="null" fill="white" id="svg_1">
   <g stroke="null" id="svg_2">
    <path stroke="null" d="m407.270271,300.806188l-9.032302,0l0,-153.549133c0,-14.940933 -12.155973,-27.096906 -27.096906,-27.096906l-217.979553,0c-14.940933,0 -27.096906,12.155973 -27.096906,27.096906l0,153.549133l-9.032302,0c-4.988938,0 -9.032302,4.043364 -9.032302,9.032302c0,24.902339 20.25917,45.16151 45.16151,45.16151l217.979553,0c24.902339,0 45.16151,-20.25917 45.16151,-45.16151c0,-4.988938 -4.043364,-9.032302 -9.032302,-9.032302zm-263.141063,-153.549133c0,-4.979526 4.052776,-9.032302 9.032302,-9.032302l217.979553,0c4.979526,0 9.032302,4.052776 9.032302,9.032302l0,153.549133l-236.044157,0l0,-153.549133zm227.011855,189.67834l-217.979553,0c-11.777273,0 -21.821006,-7.557496 -25.549185,-18.071661l269.077923,0c-3.728179,10.514165 -13.771912,18.071661 -25.549185,18.071661zm0,0" id="path2"/>
    <path stroke="null" d="m213.741442,177.000143c-3.525892,-3.52824 -9.246349,-3.52824 -12.772241,0l-36.129208,36.129208c-3.52824,3.528246 -3.52824,9.246349 0,12.772241l36.129208,36.129208c3.525892,3.52824 9.243995,3.52824 12.772241,0c3.52824,-3.525892 3.52824,-9.243995 0,-12.772241l-29.740739,-29.743087l29.740739,-29.743087c3.52824,-3.525892 3.52824,-9.246349 0,-12.772241zm0,0" id="path4"/>
    <path stroke="null" d="m323.333372,177.000143c-3.525892,-3.52824 -9.246349,-3.52824 -12.772241,0c-3.52824,3.528246 -3.52824,9.246349 0,12.772241l29.740739,29.743087l-29.740739,29.743087c-3.52824,3.528246 -3.52824,9.246349 0,12.772241c3.525892,3.52824 9.243995,3.52824 12.772241,0l36.129208,-36.129208c3.52824,-3.525892 3.52824,-9.243995 0,-12.772241l-36.129208,-36.129208zm0,0" id="path6"/>
    <path stroke="null" d="m283.071416,156.752733c-4.730198,-1.57595 -9.846154,0.980854 -11.424453,5.713401l-36.129208,108.387623c-1.578298,4.732553 0.980854,9.846148 5.713401,11.424453c4.730198,1.578298 9.846148,-0.980854 11.424453,-5.713401l36.129208,-108.387623c1.578298,-4.732553 -0.980854,-9.846148 -5.713401,-11.424453zm0,0" id="path8"/>
   </g>
  </g>
 </g>
</svg>